<?xml version="1.0" encoding="UTF-8" standalone="no"?>
<!DOCTYPE svg PUBLIC "-//W3C//DTD SVG 1.1//EN" "http://www.w3.org/Graphics/SVG/1.1/DTD/svg11.dtd">
<svg width="100%" height="100%" viewBox="0 0 512 512" version="1.1" xmlns="http://www.w3.org/2000/svg" xmlns:xlink="http://www.w3.org/1999/xlink" xml:space="preserve" xmlns:serif="http://www.serif.com/" style="fill-rule:evenodd;clip-rule:evenodd;stroke-linecap:round;stroke-linejoin:round;stroke-miterlimit:1.5;">
    <g transform="matrix(1,0,0,1,0,-164.95)">
        <g transform="matrix(1,0,0,0.954654,0,173.217303)">
            <rect x="56" y="50" width="400" height="419" style="fill:rgb(255,255,235);stroke:black;stroke-width:1.02px;"/>
        </g>
        <path d="M127.8,246.3C159,248.5 174.6,249.1 253.2,249.1C292.2,249.1 327.9,247.4 369.1,246.3C371.9,277.5 372.5,287 376.9,321L356.8,324.9C348.4,278.1 338.4,270.3 259.8,270.3C241.4,270.3 233,270.9 224.7,272C219.7,272.5 216.9,272.5 216.9,284.8L216.9,411.9L260.3,411.9C318.3,411.9 330,408 330,366.2L350.1,366.2C349,382.9 347.9,405.2 347.9,421.3C347.9,441.4 348.5,453.1 350.1,475.4L330,475.4C327.2,436.9 318.8,433.1 274.3,433.1L217,433.1L217,502.7C217,514.4 217.5,553.4 219.2,564.6C222.6,584.7 240.4,585.2 285,585.2C317.9,585.2 340.2,585.2 355.8,577.4C374.7,567.4 380.9,548.4 388.7,523.9L407.1,528.4C398.2,566.3 397.1,574.7 389.8,609.2C372,606.4 343.5,606.4 218.1,606.4C186.9,606.4 149,606.4 127.8,609.2L127.8,589.7C161.8,588.6 170.7,586.9 170.7,550.2L170.7,314.9C170.7,274.8 167.4,265.8 127.8,265.3L127.8,246.3Z" style="fill:rgb(49,49,49);fill-rule:nonzero;stroke:black;stroke-width:1px;stroke-linecap:butt;stroke-miterlimit:2;"/>
    </g>
</svg>
